REM DIRINDEX 1\2\4\8,1\2\4\9,1\2\4\10,1\2\5\11,1\2\5\12,1\2\5\13,1\2\5\14,1\2\5\15,1\3\6\16,1\3\6\17,1\3\6\18,1\3\7\19,1\3\7\20,1\3\7\21,1\3\7\22,1\3\7\23
REM DIRNAME "folder01","folder02","folder03","folder04","folder05","folder06","folder07","folder08","folder09","folder10","folder11","folder12","folder13","folder14","folder15","folder16","folder17","folder18","folder19","folder20","folder21","folder22","folder23"
TITLE ""
FILE "LR_black_phrase_E_S10.mp3" MP3
  TRACK 01 AUDIO
    TITLE "0:"
    INDEX 01 00:00:00
  TRACK 02 AUDIO
    TITLE "16:cjc171_10941"
    INDEX 01 00:00:14
  TRACK 03 AUDIO
    TITLE "0:"
    INDEX 01 00:01:53
  TRACK 04 AUDIO
    TITLE "17:cjc171_10942"
    INDEX 01 00:02:07
  TRACK 05 AUDIO
    TITLE "0:"
    INDEX 01 00:04:20
  TRACK 06 AUDIO
    TITLE "18:cjc171_10943"
    INDEX 01 00:04:75
  TRACK 07 AUDIO
    TITLE "0:"
    INDEX 01 00:07:12
  TRACK 08 AUDIO
    TITLE "16:cjc171_10944"
    INDEX 01 00:08:18
  TRACK 09 AUDIO
    TITLE "0:"
    INDEX 01 00:09:35
  TRACK 10 AUDIO
    TITLE "17:cjc171_10945"
    INDEX 01 00:09:64
  TRACK 11 AUDIO
    TITLE "0:"
    INDEX 01 00:12:21
  TRACK 12 AUDIO
    TITLE "18:cjc171_10946"
    INDEX 01 00:13:01
  TRACK 13 AUDIO
    TITLE "0:"
    INDEX 01 00:15:35
  TRACK 14 AUDIO
    TITLE "16:cjc171_10947"
    INDEX 01 00:16:41
  TRACK 15 AUDIO
    TITLE "0:"
    INDEX 01 00:18:14
  TRACK 16 AUDIO
    TITLE "17:cjc171_10948"
    INDEX 01 00:18:32
  TRACK 17 AUDIO
    TITLE "0:"
    INDEX 01 00:20:58
  TRACK 18 AUDIO
    TITLE "18:cjc171_10949"
    INDEX 01 00:21:26
  TRACK 19 AUDIO
    TITLE "0:"
    INDEX 01 00:23:54
  TRACK 20 AUDIO
    TITLE "16:cjc171_10950"
    INDEX 01 00:24:46
  TRACK 21 AUDIO
    TITLE "0:"
    INDEX 01 00:25:69
  TRACK 22 AUDIO
    TITLE "17:cjc171_10951"
    INDEX 01 00:26:18
  TRACK 23 AUDIO
    TITLE "0:"
    INDEX 01 00:28:48
  TRACK 24 AUDIO
    TITLE "18:cjc171_10952"
    INDEX 01 00:29:18
  TRACK 25 AUDIO
    TITLE "0:"
    INDEX 01 00:31:48
  TRACK 26 AUDIO
    TITLE "16:cjc171_10953"
    INDEX 01 00:32:48
  TRACK 27 AUDIO
    TITLE "0:"
    INDEX 01 00:33:61
  TRACK 28 AUDIO
    TITLE "17:cjc171_10954"
    INDEX 01 00:34:15
  TRACK 29 AUDIO
    TITLE "0:"
    INDEX 01 00:36:37
  TRACK 30 AUDIO
    TITLE "18:cjc171_10955"
    INDEX 01 00:37:17
  TRACK 31 AUDIO
    TITLE "0:"
    INDEX 01 00:39:40
  TRACK 32 AUDIO
    TITLE "16:cjc171_10956"
    INDEX 01 00:40:45
  TRACK 33 AUDIO
    TITLE "0:"
    INDEX 01 00:41:68
  TRACK 34 AUDIO
    TITLE "17:cjc171_10957"
    INDEX 01 00:42:22
  TRACK 35 AUDIO
    TITLE "0:"
    INDEX 01 00:44:27
  TRACK 36 AUDIO
    TITLE "18:cjc171_10958"
    INDEX 01 00:45:07
  TRACK 37 AUDIO
    TITLE "0:"
    INDEX 01 00:47:12
  TRACK 38 AUDIO
    TITLE "16:cjc171_10959"
    INDEX 01 00:48:17
  TRACK 39 AUDIO
    TITLE "0:"
    INDEX 01 00:49:22
  TRACK 40 AUDIO
    TITLE "17:cjc171_10960"
    INDEX 01 00:49:42
  TRACK 41 AUDIO
    TITLE "0:"
    INDEX 01 00:51:17
  TRACK 42 AUDIO
    TITLE "18:cjc171_10961"
    INDEX 01 00:51:66
  TRACK 43 AUDIO
    TITLE "0:"
    INDEX 01 00:53:40
  TRACK 44 AUDIO
    TITLE "16:cjc171_10962"
    INDEX 01 00:54:37
  TRACK 45 AUDIO
    TITLE "0:"
    INDEX 01 00:55:56
  TRACK 46 AUDIO
    TITLE "17:cjc171_10963"
    INDEX 01 00:56:05
  TRACK 47 AUDIO
    TITLE "0:"
    INDEX 01 00:58:04
  TRACK 48 AUDIO
    TITLE "18:cjc171_10964"
    INDEX 01 00:58:51
  TRACK 49 AUDIO
    TITLE "0:"
    INDEX 01 01:00:48
  TRACK 50 AUDIO
    TITLE "16:cjc171_10965"
    INDEX 01 01:01:49
  TRACK 51 AUDIO
    TITLE "0:"
    INDEX 01 01:03:01
  TRACK 52 AUDIO
    TITLE "17:cjc171_10966"
    INDEX 01 01:03:32
  TRACK 53 AUDIO
    TITLE "0:"
    INDEX 01 01:06:05
  TRACK 54 AUDIO
    TITLE "18:cjc171_10967"
    INDEX 01 01:06:60
  TRACK 55 AUDIO
    TITLE "0:"
    INDEX 01 01:09:33
  TRACK 56 AUDIO
    TITLE "16:cjc171_10968"
    INDEX 01 01:10:36
  TRACK 57 AUDIO
    TITLE "0:"
    INDEX 01 01:11:57
  TRACK 58 AUDIO
    TITLE "17:cjc171_10969"
    INDEX 01 01:12:10
  TRACK 59 AUDIO
    TITLE "0:"
    INDEX 01 01:14:46
  TRACK 60 AUDIO
    TITLE "18:cjc171_10970"
    INDEX 01 01:15:28
  TRACK 61 AUDIO
    TITLE "0:"
    INDEX 01 01:17:64
  TRACK 62 AUDIO
    TITLE "16:cjc171_10971"
    INDEX 01 01:18:69
  TRACK 63 AUDIO
    TITLE "0:"
    INDEX 01 01:20:19
  TRACK 64 AUDIO
    TITLE "17:cjc171_10972"
    INDEX 01 01:20:39
  TRACK 65 AUDIO
    TITLE "0:"
    INDEX 01 01:23:02
  TRACK 66 AUDIO
    TITLE "18:cjc171_10973"
    INDEX 01 01:23:49
  TRACK 67 AUDIO
    TITLE "0:"
    INDEX 01 01:26:14
  TRACK 68 AUDIO
    TITLE "16:cjc171_10974"
    INDEX 01 01:27:09
  TRACK 69 AUDIO
    TITLE "0:"
    INDEX 01 01:28:26
  TRACK 70 AUDIO
    TITLE "17:cjc171_10975"
    INDEX 01 01:28:44
  TRACK 71 AUDIO
    TITLE "0:"
    INDEX 01 01:30:41
  TRACK 72 AUDIO
    TITLE "18:cjc171_10976"
    INDEX 01 01:31:15
  TRACK 73 AUDIO
    TITLE "0:"
    INDEX 01 01:33:10
  TRACK 74 AUDIO
    TITLE "16:cjc171_10977"
    INDEX 01 01:34:15
  TRACK 75 AUDIO
    TITLE "0:"
    INDEX 01 01:35:36
  TRACK 76 AUDIO
    TITLE "17:cjc171_10978"
    INDEX 01 01:35:66
  TRACK 77 AUDIO
    TITLE "0:"
    INDEX 01 01:38:05
  TRACK 78 AUDIO
    TITLE "18:cjc171_10979"
    INDEX 01 01:38:62
  TRACK 79 AUDIO
    TITLE "0:"
    INDEX 01 01:41:04
  TRACK 80 AUDIO
    TITLE "16:cjc171_10980"
    INDEX 01 01:42:09
  TRACK 81 AUDIO
    TITLE "0:"
    INDEX 01 01:43:34
  TRACK 82 AUDIO
    TITLE "17:cjc171_10981"
    INDEX 01 01:43:65
  TRACK 83 AUDIO
    TITLE "0:"
    INDEX 01 01:46:40
  TRACK 84 AUDIO
    TITLE "18:cjc171_10982"
    INDEX 01 01:47:20
  TRACK 85 AUDIO
    TITLE "0:"
    INDEX 01 01:49:70
  TRACK 86 AUDIO
    TITLE "16:cjc171_10983"
    INDEX 01 01:50:73
  TRACK 87 AUDIO
    TITLE "0:"
    INDEX 01 01:52:05
  TRACK 88 AUDIO
    TITLE "17:cjc171_10984"
    INDEX 01 01:52:27
  TRACK 89 AUDIO
    TITLE "0:"
    INDEX 01 01:54:18
  TRACK 90 AUDIO
    TITLE "18:cjc171_10985"
    INDEX 01 01:54:61
  TRACK 91 AUDIO
    TITLE "0:"
    INDEX 01 01:56:52
  TRACK 92 AUDIO
    TITLE "16:cjc171_10986"
    INDEX 01 01:57:48
  TRACK 93 AUDIO
    TITLE "0:"
    INDEX 01 01:58:65
  TRACK 94 AUDIO
    TITLE "17:cjc171_10987"
    INDEX 01 01:59:09
  TRACK 95 AUDIO
    TITLE "0:"
    INDEX 01 02:00:64
  TRACK 96 AUDIO
    TITLE "18:cjc171_10988"
    INDEX 01 02:01:38
  TRACK 97 AUDIO
    TITLE "0:"
    INDEX 01 02:03:17
  TRACK 98 AUDIO
    TITLE "16:cjc171_10989"
    INDEX 01 02:04:20
  TRACK 99 AUDIO
    TITLE "0:"
    INDEX 01 02:05:55
  TRACK 100 AUDIO
    TITLE "17:cjc171_10990"
    INDEX 01 02:06:07
  TRACK 101 AUDIO
    TITLE "0:"
    INDEX 01 02:08:75
  TRACK 102 AUDIO
    TITLE "18:cjc171_10991"
    INDEX 01 02:09:53
  TRACK 103 AUDIO
    TITLE "0:"
    INDEX 01 02:12:45
  TRACK 104 AUDIO
    TITLE "16:cjc171_10992"
    INDEX 01 02:13:47
  TRACK 105 AUDIO
    TITLE "0:"
    INDEX 01 02:14:60
  TRACK 106 AUDIO
    TITLE "17:cjc171_10993"
    INDEX 01 02:15:14
  TRACK 107 AUDIO
    TITLE "0:"
    INDEX 01 02:17:01
  TRACK 108 AUDIO
    TITLE "18:cjc171_10994"
    INDEX 01 02:17:56
  TRACK 109 AUDIO
    TITLE "0:"
    INDEX 01 02:19:43
  TRACK 110 AUDIO
    TITLE "16:cjc171_10995"
    INDEX 01 02:20:45
  TRACK 111 AUDIO
    TITLE "0:"
    INDEX 01 02:21:52
  TRACK 112 AUDIO
    TITLE "17:cjc171_10996"
    INDEX 01 02:21:74
  TRACK 113 AUDIO
    TITLE "0:"
    INDEX 01 02:23:39
  TRACK 114 AUDIO
    TITLE "18:cjc171_10997"
    INDEX 01 02:24:11
  TRACK 115 AUDIO
    TITLE "0:"
    INDEX 01 02:25:52
  TRACK 116 AUDIO
    TITLE "16:cjc171_10998"
    INDEX 01 02:26:51
  TRACK 117 AUDIO
    TITLE "0:"
    INDEX 01 02:27:61
  TRACK 118 AUDIO
    TITLE "17:cjc171_10999"
    INDEX 01 02:28:07
  TRACK 119 AUDIO
    TITLE "0:"
    INDEX 01 02:30:37
  TRACK 120 AUDIO
    TITLE "18:cjc171_11000"
    INDEX 01 02:31:09
  TRACK 121 AUDIO
    TITLE "0:"
    INDEX 01 02:33:36
